<?xml version="1.0" encoding="UTF-8"?>
<svg xmlns="http://www.w3.org/2000/svg" width="256" height="256" viewBox="0 0 256 256">
  <!-- Fondo degradado -->
  <defs>
    <linearGradient id="grad1" x1="0%" y1="0%" x2="100%" y2="100%">
      <stop offset="0%" style="stop-color:#FF6B6B;stop-opacity:1" />
      <stop offset="100%" style="stop-color:#FF8E53;stop-opacity:1" />
    </linearGradient>
  </defs>
  
  <!-- Círculo de fondo -->
  <circle cx="128" cy="128" r="120" fill="url(#grad1)"/>
  
  <!-- Documento PDF -->
  <rect x="40" y="50" width="90" height="120" rx="5" fill="white" opacity="0.95"/>
  
  <!-- Líneas de texto en el PDF -->
  <line x1="52" y1="70" x2="118" y2="70" stroke="#333" stroke-width="2" stroke-linecap="round"/>
  <line x1="52" y1="82" x2="118" y2="82" stroke="#333" stroke-width="2" stroke-linecap="round"/>
  <line x1="52" y1="94" x2="118" y2="94" stroke="#333" stroke-width="2" stroke-linecap="round"/>
  <line x1="52" y1="106" x2="100" y2="106" stroke="#333" stroke-width="2" stroke-linecap="round"/>
  <line x1="52" y1="130" x2="118" y2="130" stroke="#DDD" stroke-width="2" stroke-linecap="round"/>
  <line x1="52" y1="142" x2="118" y2="142" stroke="#DDD" stroke-width="2" stroke-linecap="round"/>
  <line x1="52" y1="154" x2="90" y2="154" stroke="#DDD" stroke-width="2" stroke-linecap="round"/>
  
  <!-- Flecha transformación -->
  <g>
    <path d="M 135 110 L 175 110" stroke="white" stroke-width="3" fill="none" stroke-linecap="round"/>
    <path d="M 170 105 L 175 110 L 170 115" stroke="white" stroke-width="3" fill="none" stroke-linecap="round" stroke-linejoin="round"/>
  </g>
  
  <!-- Imagen PNG -->
  <rect x="126" y="80" width="90" height="70" rx="5" fill="white" opacity="0.95"/>
  
  <!-- Imagen ficticia (cuadros de colores) -->
  <rect x="136" y="90" width="20" height="20" fill="#4CAF50"/>
  <rect x="162" y="90" width="20" height="20" fill="#2196F3"/>
  <rect x="188" y="90" width="20" height="20" fill="#FFC107"/>
  
  <circle cx="148" cy="125" r="8" fill="#FF5722"/>
  <circle cx="174" cy="125" r="8" fill="#9C27B0"/>
  <circle cx="196" cy="125" r="8" fill="#00BCD4"/>
  
  <!-- Brillo/Destello -->
  <circle cx="206" cy="65" r="15" fill="white" opacity="0.3"/>
</svg>
